<svg width="24" height="24" viewBox="0 0 24 24" fill="none" xmlns="http://www.w3.org/2000/svg">
<path d="M11.7524 10.3393L11.6057 11.0748L11.7524 10.3393ZM12.9532 11.0554C12.7461 11.4141 12.869 11.8728 13.2277 12.0799C13.5865 12.287 14.0451 12.1641 14.2523 11.8054L12.9532 11.0554ZM2.80469 15.9287L2.34344 15.3373C2.14675 15.4907 2.0392 15.7318 2.05649 15.9807C2.07379 16.2295 2.21367 16.4535 2.42969 16.5782L2.80469 15.9287ZM13.197 21.9287L12.822 22.5782C13.038 22.7029 13.3019 22.7121 13.5261 22.6026C13.7502 22.4932 13.9053 22.2795 13.9398 22.0324L13.197 21.9287ZM7.47111 12.6462L13.7065 16.2462L14.4565 14.9472L8.22111 11.3472L7.47111 12.6462ZM14.7844 15.8584C15.028 15.2041 15.239 14.1583 15.0913 13.0826C14.9402 11.9829 14.4028 10.8106 13.1166 10.0679L12.3666 11.367C13.1588 11.8244 13.5011 12.5284 13.6052 13.2867C13.7127 14.069 13.5544 14.8628 13.3786 15.335L14.7844 15.8584ZM13.1166 10.0679C12.7148 9.83599 12.3064 9.68504 11.8991 9.60378L11.6057 11.0748C11.8496 11.1235 12.1041 11.2154 12.3666 11.367L13.1166 10.0679ZM11.8991 9.60378C10.8245 9.3894 9.83128 9.67189 9.04867 10.0846C8.26898 10.4958 7.64522 11.0625 7.26805 11.5188L8.42418 12.4745C8.69042 12.1524 9.1638 11.7197 9.74839 11.4114C10.3301 11.1047 10.9683 10.9476 11.6057 11.0748L11.8991 9.60378ZM12.4019 10.7143L15.1521 5.95079L13.8531 5.20079L11.1029 9.96429L12.4019 10.7143ZM15.1521 5.95079C15.1853 5.89327 15.2213 5.82453 15.2437 5.78287C15.2704 5.73317 15.292 5.69438 15.3133 5.66007C15.3586 5.58721 15.3801 5.57292 15.3747 5.57674C15.369 5.58085 15.3568 5.58797 15.3403 5.59295C15.3235 5.59801 15.3149 5.59704 15.3203 5.5973C15.3363 5.59809 15.4302 5.60884 15.6258 5.72178L16.3758 4.42275C16.0519 4.23569 15.7241 4.11528 15.3936 4.0991C15.0443 4.08199 14.7432 4.18425 14.5021 4.35669C14.2775 4.51729 14.132 4.71933 14.0397 4.86771C13.9922 4.94402 13.9523 5.01708 13.922 5.07361C13.8873 5.1382 13.8708 5.1701 13.8531 5.20079L15.1521 5.95079ZM15.6258 5.72178C15.8401 5.84547 15.9214 5.92924 15.9456 5.96038C15.9571 5.97504 15.9322 5.94321 15.9327 5.88661C15.933 5.8531 15.9433 5.86066 15.9036 5.94179C15.8851 5.97974 15.8607 6.02384 15.8271 6.08134C15.8039 6.12112 15.7461 6.21796 15.7133 6.27479L17.0123 7.02479C17.0645 6.93441 17.1751 6.75633 17.2512 6.60056C17.3338 6.43154 17.4299 6.18929 17.4326 5.90054C17.4388 5.23061 16.9699 4.76573 16.3758 4.42275L15.6258 5.72178ZM15.7133 6.27479L12.9532 11.0554L14.2523 11.8054L17.0123 7.02479L15.7133 6.27479ZM7.38486 11.4053L2.34344 15.3373L3.26594 16.5201L8.30736 12.5881L7.38486 11.4053ZM13.9398 22.0324L14.8243 15.7004L13.3387 15.4929L12.4542 21.8249L13.9398 22.0324ZM2.42969 16.5782L5.02776 18.0782L5.77776 16.7792L3.17969 15.2792L2.42969 16.5782ZM5.02776 18.0782L7.62584 19.5782L8.37584 18.2792L5.77776 16.7792L5.02776 18.0782ZM7.62584 19.5782L10.2239 21.0782L10.9739 19.7792L8.37584 18.2792L7.62584 19.5782ZM10.2239 21.0782L12.822 22.5782L13.572 21.2792L10.9739 19.7792L10.2239 21.0782Z" fill="black"/>
<path d="M5.65234 16.9951L7.76837 15.3301" stroke="black" stroke-width="1.5" stroke-linecap="round"/>
<path d="M10.8504 19.9951L11.2344 17.3301" stroke="black" stroke-width="1.5" stroke-linecap="round"/>
<path d="M8.25 18.4963L9 17.1973" stroke="black" stroke-width="1.5" stroke-linecap="round"/>
</svg>
